<?xml version="1.0" encoding="utf-8"?>
<!-- Generator: Adobe Illustrator 26.5.3, SVG Export Plug-In . SVG Version: 6.00 Build 0)  -->
<svg version="1.1" xmlns="http://www.w3.org/2000/svg" xmlns:xlink="http://www.w3.org/1999/xlink" x="0px" y="0px"
	 viewBox="0 0 32 32" style="enable-background:new 0 0 32 32;" xml:space="preserve">
<style type="text/css">
	.st0{fill:#9FCBF6;}
	.st1{fill:#FE6F00;}
</style>
<g id="레이어_1">
</g>
<g id="레이어_2">
	<path class="st0" d="M1.97,8.19C1.91,7.78,2.35,7.46,2.71,7.66c1.3,0.71,3.92,1.4,7.09-1.77c2.19-2.19,3.33-3.59,3.92-4.46
		c0.38-0.56,1.18-0.59,1.61-0.07l3.51,4.21c0.95,1.14,2.29,1.89,3.77,2.09c1.66,0.23,3.85,0.19,5.66-1.03
		c0.38-0.26,0.9,0.04,0.9,0.51v0c0,3.7-0.65,7.36-1.91,10.84l-0.73,2.01c-1.26,3.47-3.27,6.62-5.88,9.23l0,0
		c-2.26,2.26-5.88,2.38-8.28,0.28l-1.54-1.35c-2.49-2.18-4.44-4.9-5.65-7.98C3.97,17.13,2.62,12.94,1.97,8.19z"/>
	<path class="st1" d="M3.66,7.94C3.59,7.48,4.07,7.15,4.48,7.36c1.3,0.66,3.77,1.19,6.74-1.78c2.12-2.12,3.23-3.48,3.8-4.32
		c0.37-0.54,1.15-0.57,1.56-0.07l3.4,4.08c0.92,1.11,2.22,1.83,3.65,2.03c1.61,0.22,3.73,0.18,5.49-1C29.5,6.04,30,6.34,30,6.78v0
		c0,3.58-0.63,7.14-1.85,10.51l-0.71,1.95c-1.22,3.36-3.17,6.42-5.7,8.95l0,0c-2.19,2.19-5.7,2.3-8.03,0.27l-1.49-1.31
		c-2.41-2.11-4.3-4.75-5.48-7.73C5.59,16.5,4.3,12.49,3.66,7.94z"/>
</g>
</svg>
