<?xml version="1.0" encoding="utf-8"?>
<!-- Generator: Adobe Illustrator 26.5.3, SVG Export Plug-In . SVG Version: 6.00 Build 0)  -->
<svg version="1.1" id="레이어_1" xmlns="http://www.w3.org/2000/svg" xmlns:xlink="http://www.w3.org/1999/xlink" x="0px"
	 y="0px" viewBox="0 0 160 157" style="enable-background:new 0 0 160 157;" xml:space="preserve">
<style type="text/css">
	.st0{fill:#FF761A;}
</style>
<path class="st0" d="M17.39,35.03c0,0,10.82,6.92,24.66,3.89s22.5-17.74,22.5-17.74l7.6-14.6c1.34-2.57,4.99-2.66,6.43-0.16
	c5.41,9.36,17.06,26.48,30.53,27.73c18.6,1.73,26.82-3.89,26.82-3.89l8.56-5.13c1.99-1.19,4.52,0.24,4.51,2.55
	c-0.04,12.29-1.6,44.11-15.23,71.37c-8.74,17.48-16.37,29-21.79,36.12c-4.44,5.83-10.12,10.6-16.61,14.01l0,0
	c-6.45,3.39-14.16,3.3-20.55-0.21C64,143.04,47.8,131,36.86,108.59C23.1,80.4,14.03,50.52,11,38c-0.53-2.18,0-6,4.54-4L17.39,35.03z
	"/>
</svg>
